<svg width="168" height="34" xmlns="http://www.w3.org/2000/svg" xmlns:xlink="http://www.w3.org/1999/xlink"><defs><path id="a" d="M0 0h31.385v20.431H0z"/><path id="c" d="M0 0h8.023v11.574H0z"/></defs><g fill="none" fill-rule="evenodd"><g transform="translate(9.978)"><mask id="b" fill="#fff"><use xlink:href="#a"/></mask><path d="m26.915.734.295.08c3 .8 4.787 3.878 3.983 6.864-.804 2.985-3.898 4.763-6.899 3.963l-.27-.072a22.87 22.87 0 0 0-7.313-.738 22.182 22.182 0 0 0-6.855 1.53c-4.099 1.635-7.57 4.484-9.856 8.07.065-1.566.304-3.125.713-4.643 1.479-5.493 5.02-10.084 9.967-12.927A21.342 21.342 0 0 1 26.915.734" fill="#FFF" mask="url(#b)"/></g><path d="m4.47 33.265-.295-.079c-3-.8-4.786-3.879-3.982-6.865.804-2.985 3.898-4.763 6.898-3.963l.27.072a22.87 22.87 0 0 0 7.314.738 22.182 22.182 0 0 0 6.854-1.53c4.1-1.635 7.571-4.484 9.856-8.07a21.263 21.263 0 0 1-.713 4.643c-1.478 5.493-5.019 10.084-9.967 12.927a21.342 21.342 0 0 1-16.234 2.127M60.154 25.54a4.283 4.283 0 0 0 1.006-1.328 5.844 5.844 0 0 0 .508-1.705c.093-.634.14-1.335.14-2.084v-7.247c0-1.099-.134-2.07-.4-2.886a4.13 4.13 0 0 0-1.402-1.999c-.68-.534-1.62-.94-2.794-1.207-1.189-.27-2.725-.407-4.565-.407h-.01v2.3h.044c.706 0 1.326.042 1.845.126.53.086.974.226 1.325.416.364.197.635.461.807.782.169.316.254.7.254 1.143v10.9c0 .514-.068.948-.204 1.29a1.726 1.726 0 0 1-.732.854c-.332.202-.782.344-1.338.421-.53.075-1.203.113-2 .114v2.29c1.299-.003 2.443-.07 3.401-.205.962-.135 1.792-.337 2.468-.602.668-.26 1.222-.586 1.647-.966M46.548 6.906v20.178c0 .126.107.229.239.229h4.64V6.677h-4.64a.234.234 0 0 0-.239.229M78.733 25.55a5.49 5.49 0 0 0 1.29-2.186c.259-.835.39-1.737.39-2.682V13.33c0-.968-.131-1.884-.39-2.724a5.438 5.438 0 0 0-1.298-2.19c-.604-.625-1.415-1.13-2.409-1.504-.956-.359-2.153-.567-3.56-.618v2.56c.517.061.955.196 1.301.404.383.23.689.52.909.86.217.336.365.712.44 1.118.075.394.112.79.112 1.175v9.191c0 .385-.037.781-.111 1.175-.076.405-.221.78-.431 1.116a2.623 2.623 0 0 1-.904.856c-.347.204-.789.338-1.315.398v2.55c1.416-.046 2.618-.255 3.574-.625.994-.385 1.802-.897 2.402-1.522M65.587 8.415a5.397 5.397 0 0 0-1.28 2.196 9.42 9.42 0 0 0-.383 2.72v7.434c0 .944.131 1.842.39 2.67a5.39 5.39 0 0 0 1.289 2.161c.599.618 1.404 1.12 2.393 1.493.951.36 2.145.563 3.551.607v-2.549c-.518-.06-.955-.197-1.3-.405a2.67 2.67 0 0 1-.903-.86 3.206 3.206 0 0 1-.43-1.11 6.327 6.327 0 0 1-.112-1.17v-9.19c0-.388.038-.782.111-1.17.075-.402.224-.778.44-1.118.22-.344.523-.635.9-.865.342-.208.776-.344 1.294-.405v-2.56c-1.407.051-2.604.26-3.56.618-.994.373-1.801.878-2.4 1.503M81.455 6.942v2.999c0 .147.124.266.277.266H95.34a.271.271 0 0 0 .277-.266V6.942a.271.271 0 0 0-.277-.265H81.732a.271.271 0 0 0-.277.265M86.113 11.158v15.89c0 .145.124.264.277.264h4.342a.271.271 0 0 0 .276-.265V11.158h-4.895zM110.14 26.349a4.965 4.965 0 0 0 1.484-1.483 3.523 3.523 0 0 0 .54-1.91c0-.732-.137-1.415-.403-2.026a6.905 6.905 0 0 0-1.094-1.735 10.886 10.886 0 0 0-1.636-1.535 32.187 32.187 0 0 0-2.026-1.434l-.503-.318-3.205 2.26.445.291c.459.303.911.628 1.343.97a9.49 9.49 0 0 1 1.18 1.1c.348.387.631.8.842 1.224.217.436.327.892.327 1.357 0 .284-.04.55-.117.79-.08.25-.215.473-.4.665a1.954 1.954 0 0 1-.707.456 2.949 2.949 0 0 1-.84.18v2.517c.896-.035 1.751-.165 2.545-.387.847-.236 1.596-.567 2.225-.982M98.914 7.797a4.794 4.794 0 0 0-1.451 1.572c-.338.602-.51 1.289-.51 2.04 0 .648.12 1.235.358 1.747.241.519.566.996.966 1.419.405.429.871.829 1.386 1.19.521.365 1.064.724 1.612 1.066l1.093.73 3.22-2.281-.613-.404-.633-.418a11.27 11.27 0 0 1-1.001-.7 5.62 5.62 0 0 1-.826-.785 3.413 3.413 0 0 1-.561-.907 2.738 2.738 0 0 1-.205-1.057c0-.28.049-.55.144-.804.098-.258.249-.49.45-.69a2.46 2.46 0 0 1 .747-.491c.252-.111.538-.184.854-.22V6.299c-1 .056-1.928.206-2.758.448-.88.256-1.643.61-2.272 1.05M109.96 7.772c-.625-.45-1.37-.811-2.217-1.074a9.775 9.775 0 0 0-2.588-.417v2.58a2.34 2.34 0 0 1 1.463 1.066c.157.257.278.538.36.835.067.244.114.484.141.717.014.113.016.227.011.34-.002.05-.005.099-.009.147-.007.089.072.16.164.15l4.548-.501c.13-.014.23-.12.23-.247v-.053a4.248 4.248 0 0 0-.615-1.953 5.432 5.432 0 0 0-1.489-1.59M98.892 25.748c.6.555 1.358 1.014 2.253 1.365.848.334 1.862.532 3.017.591v-2.587a2.41 2.41 0 0 1-1.082-.544 3.159 3.159 0 0 1-.741-1.018 4.905 4.905 0 0 1-.38-1.271c-.051-.317-.09-.637-.117-.956a.183.183 0 0 0-.21-.162l-4.555.652a.138.138 0 0 0-.12.152c.094.65.28 1.286.555 1.893.316.698.78 1.332 1.38 1.886M126.505 6.677h-3.209a.188.188 0 0 0-.189.224l4.463 20.264c.019.086.097.147.19.147h3.143a.188.188 0 0 0 .19-.224l-2.115-9.573-2.283-10.69a.192.192 0 0 0-.19-.148M132.074 6.832l-1.838 10.642 1.95 9.098 4.021-19.674a.188.188 0 0 0-.19-.22h-3.752a.19.19 0 0 0-.19.154M122.312 8.94l-1.84 8.514 1.739 7.944 1.718-9.26zM117.226 6.677h-3.751a.189.189 0 0 0-.19.222l4.174 20.264a.191.191 0 0 0 .19.149h3.522c.123 0 .216-.108.19-.224l-2.115-9.585-1.829-10.67a.191.191 0 0 0-.19-.156M147.676 27.312h4.373c.094 0 .163-.087.136-.174l-6.097-20.363a.142.142 0 0 0-.137-.098h-3.355c-.092 0-.16.083-.138.168l1.846 7.231 3.234 13.131a.141.141 0 0 0 .138.105M145.138 22.61l-.464-2.163h-2.955l1.41-6.077-1.835-7.17-5.97 19.939c-.026.087.042.174.137.174h4.51a.14.14 0 0 0 .139-.102l1.253-4.6h3.775z" fill="#FFF"/><g transform="translate(159.977 6.677)"><mask id="d" fill="#fff"><use xlink:href="#c"/></mask><path d="M7.515 8.436c.337-.739.508-1.66.508-2.738 0-.863-.128-1.655-.38-2.356A4.3 4.3 0 0 0 6.427 1.56C5.87 1.066 5.133.679 4.238.41 3.334.138 2.214 0 .909 0H0v2.355c.529.035.974.1 1.333.193.59.153 1.044.379 1.348.671.31.297.507.662.585 1.086.073.399.112.847.112 1.334 0 .593-.03 1.116-.086 1.554-.058.46-.198.847-.413 1.152-.221.314-.549.549-.973.699-.408.144-.966.217-1.663.217H0v2.313h.011c1.322 0 2.5-.11 3.501-.326.991-.213 1.832-.556 2.501-1.019a4.34 4.34 0 0 0 1.502-1.793" fill="#FFF" mask="url(#d)"/></g><path d="M153.888 6.89v20.208c0 .119.1.214.224.214h4.432a.219.219 0 0 0 .223-.214V6.89a.22.22 0 0 0-.223-.214h-4.432a.219.219 0 0 0-.224.214" fill="#FFF"/></g></svg>