<svg width="600" height="112" viewBox="0 0 600 112" fill="none" xmlns="http://www.w3.org/2000/svg">
<g clip-path="url(#clip0_1448_102910)">
<path d="M147.719 107.12L112.123 5.85222C111.743 4.71011 112.504 3.56799 113.837 3.56799H138.582C139.344 3.56799 139.915 4.13905 140.296 4.71011L156.856 57.8185L161.615 74.3791C161.615 74.5695 161.805 74.5695 161.805 74.5695C161.996 74.5695 161.996 74.5695 161.996 74.3791C162.948 70.001 164.47 64.4808 166.564 57.8185L183.506 4.71011C183.696 3.9487 184.457 3.56799 185.219 3.56799H209.584C210.726 3.56799 211.678 4.71011 211.297 5.85222L175.32 107.12C175.13 107.881 174.369 108.262 173.607 108.262H149.242C148.481 108.262 147.91 107.881 147.719 107.12Z" fill="white"/>
<path d="M267.829 111.498C250.888 111.498 237.563 106.359 227.855 95.8893C218.147 85.4199 213.388 72.0952 213.388 55.7249C213.388 39.5449 218.147 26.7913 227.855 16.3219C237.563 5.66216 249.936 0.522644 265.164 0.522644C281.725 0.522644 294.478 6.23322 303.425 17.6544C312.181 28.8852 316.75 43.5423 316.94 62.0065C316.94 62.9583 316.178 63.7197 315.227 63.7197H242.702C241.56 63.7197 240.799 64.6714 240.989 65.8136C242.322 73.2373 244.987 78.9479 249.174 83.1356C253.743 87.7041 259.834 89.9883 267.639 89.9883C277.537 89.9883 284.009 85.9909 287.435 77.9961C287.626 77.4251 288.387 77.0444 288.958 77.0444H313.133C314.275 77.0444 315.036 78.1865 314.846 79.1382C312.562 88.0848 307.422 95.5086 299.808 101.6C291.433 108.262 280.773 111.498 267.829 111.498ZM265.735 21.8421C252.791 21.8421 244.796 28.6948 241.751 42.4002C241.56 43.5423 242.322 44.4941 243.464 44.4941H286.103C287.055 44.4941 288.006 43.5423 287.816 42.5905C287.055 36.6896 284.961 31.9308 281.154 28.1238C277.156 23.936 271.826 21.8421 265.735 21.8421Z" fill="white"/>
<path d="M387.376 25.8392C387.376 26.791 386.615 27.5524 385.663 27.5524H357.491C356.539 27.5524 355.778 28.3138 355.778 29.2656V106.739C355.778 107.691 355.016 108.452 354.065 108.452H330.651C329.699 108.452 328.938 107.691 328.938 106.739V36.8797C328.938 18.4155 343.976 3.56799 362.25 3.56799H385.473C386.424 3.56799 387.186 4.3294 387.186 5.28117L387.376 25.8392Z" fill="white"/>
<path d="M443.141 111.498C427.912 111.498 416.111 108.262 407.545 101.6C399.55 95.318 396.124 86.9425 394.981 76.2827C394.981 75.331 395.743 74.3792 396.695 74.3792H419.347C420.108 74.3792 420.869 74.9503 421.06 75.7117C423.154 86.3714 429.435 91.7013 442.57 91.7013C448.851 91.7013 453.61 90.5592 457.036 88.4653C460.463 86.1811 462.176 83.3258 462.176 79.7091C462.176 78.3766 461.986 77.0441 461.414 76.0924C460.843 74.9503 460.082 73.9985 458.94 73.0467C457.798 72.095 456.656 71.5239 455.894 70.9529C454.942 70.3818 453.42 69.8108 451.326 69.2397C449.042 68.6686 447.519 68.2879 446.186 68.0976C445.044 67.9072 442.95 67.5265 440.095 66.9555C437.24 66.3844 435.336 66.1941 434.194 65.8134C428.483 64.6712 423.725 63.5291 420.108 62.387C416.491 61.2449 412.684 59.5317 408.687 57.2475C404.689 54.9633 401.644 51.9176 399.74 48.1106C397.646 44.3035 396.695 39.5447 396.695 34.0245C396.695 23.1744 400.692 14.7989 408.877 9.08831C417.062 3.37773 427.151 0.332092 439.714 0.332092C453.42 0.332092 464.079 3.37773 471.884 9.65936C479.117 15.5603 482.353 23.3647 483.686 33.2631C483.876 34.2148 482.924 35.1666 481.973 35.1666H459.892C459.13 35.1666 458.369 34.5955 458.178 33.6438C456.656 24.3165 451.135 19.748 439.334 19.748C433.623 19.748 429.245 20.6998 426.009 22.7937C422.773 24.8876 421.06 27.7429 421.06 31.3595C421.06 32.5017 421.25 33.6438 421.821 34.7859C422.392 35.928 423.154 36.6894 424.296 37.4508C425.438 38.2122 426.58 38.7833 427.722 39.3544C428.864 39.9254 430.387 40.3061 432.481 40.8772C434.575 41.4482 436.288 41.8289 437.811 42.0193C439.334 42.4 441.427 42.7807 444.092 43.1614C446.757 43.7325 448.851 43.9228 450.374 44.3035C454.752 45.2553 458.369 46.207 461.224 46.7781C464.079 47.5395 467.315 48.6816 471.122 50.3948C474.929 52.108 477.785 54.0115 479.879 56.1054C481.973 58.1993 483.876 61.0545 485.399 64.6712C486.922 68.2879 487.683 72.4757 487.683 77.2345C487.683 87.7039 483.495 95.889 475.31 101.98C467.315 108.452 456.465 111.498 443.141 111.498Z" fill="white"/>
<path d="M550.889 111.498C533.948 111.498 520.623 106.359 510.915 95.8893C501.207 85.4199 496.448 72.0952 496.448 55.7249C496.448 39.5449 501.207 26.7913 510.915 16.3219C520.623 5.66216 532.996 0.522644 548.224 0.522644C564.785 0.522644 577.538 6.23322 586.485 17.6544C595.241 28.8852 599.81 43.5423 600 62.0065C600 62.9583 599.239 63.7197 598.287 63.7197H525.763C524.62 63.7197 523.859 64.6714 524.049 65.8136C525.382 73.2373 528.047 78.9479 532.234 83.1356C536.803 87.7041 542.894 89.9883 550.699 89.9883C560.597 89.9883 567.069 85.9909 570.495 77.9961C570.686 77.4251 571.447 77.0444 572.018 77.0444H596.193C597.335 77.0444 598.096 78.1865 597.906 79.1382C595.622 88.0848 590.482 95.5086 582.868 101.6C574.493 108.262 563.833 111.498 550.889 111.498ZM548.605 21.8421C535.661 21.8421 527.666 28.6948 524.62 42.4002C524.43 43.5423 525.191 44.4941 526.334 44.4941H568.973C569.924 44.4941 570.876 43.5423 570.686 42.5905C569.924 36.6896 567.83 31.9308 564.023 28.1238C560.216 23.936 554.886 21.8421 548.605 21.8421Z" fill="white"/>
<path d="M105.075 106.549V87.5135C105.075 86.7521 104.694 85.9907 104.313 85.4197L23.0327 3.94879C22.4616 3.37773 21.7002 3.18738 20.9388 3.18738H1.90353C0.951763 3.18738 0.190353 3.94879 0.190353 4.90055V22.6033C0.190353 23.3647 0.571058 24.1262 0.951763 24.6972L30.0757 53.8211C30.8371 54.5826 30.8371 55.5343 30.0757 56.2957L0.571057 85.8004C0.190352 86.1811 0 86.5618 0 86.9425V106.358C0 107.31 0.76141 108.072 1.71317 108.072H33.6924C34.6442 108.072 35.4056 107.31 35.4056 106.358V94.9373C35.4056 94.5566 35.5959 93.9855 35.9766 93.7952L51.7759 77.9959C52.5373 77.2345 53.4891 77.2345 54.2505 77.9959L83.5648 107.31C84.1358 107.881 84.8972 108.072 85.6586 108.072H103.361C104.313 108.262 105.075 107.501 105.075 106.549Z" fill="white"/>
<path d="M62.2479 28.3139H78.2375C79.1893 28.3139 79.9507 29.0753 79.9507 30.0271V46.0167C79.9507 47.5395 81.8542 48.3009 82.806 47.1588L104.697 25.2683C105.077 24.8876 105.268 24.5069 105.268 24.1262V4.90055C105.268 3.94879 104.506 3.18738 103.554 3.18738H84.1385C83.7578 3.18738 83.1867 3.37773 82.9964 3.75844L61.1058 25.4586C59.9637 26.4104 60.7251 28.3139 62.2479 28.3139Z" fill="#EE7A30"/>
</g>
<defs>
<clipPath id="clip0_1448_102910">
<rect width="600" height="111.166" fill="white" transform="translate(0 0.332092)"/>
</clipPath>
</defs>
</svg>
