<svg width="200" height="40" viewBox="0 0 200 40" fill="none" xmlns="http://www.w3.org/2000/svg">
<path d="M9.25914 25.7885V38.605H0V0.87809H21.6784V9.97652H9.25914V16.6901H20.5881V25.7885H9.25914ZM72.5496 0.87809H86.3303C93.7381 0.87809 98.8575 4.87255 98.8575 12.085C98.8575 17.4113 95.9713 20.4621 92.5939 21.5717C97.3868 24.1789 99.6199 30.9478 100.274 38.6037H90.6333C89.5444 31.0031 87.148 25.399 82.7357 25.399H81.81V38.6037H72.5509L72.5496 0.87809ZM86.275 9.97652H81.8087V16.3018H86.275C88.0723 16.3018 89.3245 15.1923 89.3245 13.1392C89.3245 11.086 88.0723 9.97652 86.275 9.97652ZM129.082 11.6401C127.231 10.4201 123.798 9.08814 121.13 9.08814C118.463 9.08814 117.536 10.1976 117.536 11.4743C117.536 12.3614 118.407 13.305 119.932 14.1934L124.126 16.6348C129.028 19.5198 131.042 23.0154 131.042 27.3981C131.042 33.6116 127.121 39.2157 118.133 39.2157C114.593 39.2157 111.107 38.4392 108.656 37.4402V27.177C110.672 28.7853 114.484 30.3949 117.752 30.3949C119.931 30.3949 121.183 29.5631 121.183 27.9535C121.183 27.0664 120.475 26.2334 118.733 25.2344L114.32 22.6824C109.146 19.6869 107.621 16.3018 107.621 11.8085C107.621 6.31632 110.943 0.268697 121.183 0.268697C123.743 0.268697 126.684 0.824093 129.081 1.82174L129.082 11.6401ZM159.748 31.7796H147.384L145.151 38.6037H134.802L148.418 0.876803H158.767L172.385 38.6037H162.035L159.748 31.7796ZM150.434 22.6811H156.753L153.594 13.1945L150.434 22.6811ZM182.189 9.97652H173.638V0.87809H200V9.97652H191.449V38.6037H182.19L182.189 9.97652ZM47.8693 0C36.8283 0 28.4485 8.43248 28.4485 19.4735C28.4485 30.5145 36.8283 38.947 47.8693 38.947C58.9103 38.947 67.2849 30.5145 67.2849 19.4735C67.2849 8.43248 58.9077 0 47.8693 0ZM54.1908 26.0829C52.3292 27.3107 50.1834 28.2145 47.8976 28.2145C45.6117 28.2145 43.3516 27.2619 41.4553 25.9865C37.5868 23.3831 34.9872 19.4259 34.9872 19.4259C34.9872 19.4259 37.5906 15.4662 41.4604 12.8602C43.3541 11.5874 45.5539 10.6373 47.8976 10.6373C50.2413 10.6373 52.3253 11.5386 54.1856 12.7638C57.7545 15.1126 60.2769 18.6507 60.7346 19.3154C60.7822 19.3861 60.8079 19.4259 60.8079 19.4259C60.8079 19.4259 60.7848 19.4632 60.7372 19.5339C60.2847 20.1909 57.7622 23.7315 54.1908 26.0829Z" fill="url(#paint0_linear_467_9053)"/>
<defs>
<linearGradient id="paint0_linear_467_9053" x1="230.343" y1="19.6072" x2="-0.00129058" y2="19.6072" gradientUnits="userSpaceOnUse">
<stop stop-color="#FFB03D"/>
<stop offset="0.15" stop-color="#FFA72E"/>
<stop offset="0.43" stop-color="#FF9008"/>
<stop offset="0.48" stop-color="#FF8C00"/>
<stop offset="0.76" stop-color="#FD5C33"/>
<stop offset="1" stop-color="#FD2E65"/>
</linearGradient>
</defs>
</svg>
